<svg width="106" height="32" viewBox="0 0 106 32" fill="none" xmlns="http://www.w3.org/2000/svg">
<path d="M21.96 25.3003C21.96 26.2573 21.6068 27.0605 20.9004 27.71C20.194 28.3594 19.1401 28.8436 17.7388 29.1626C16.9299 29.3449 15.8019 29.4987 14.355 29.624C12.908 29.7493 11.1421 29.8348 9.05713 29.8804C7.15446 29.9259 5.59359 30 4.37451 30.1025C3.16683 30.2165 2.30664 30.376 1.79395 30.5811L2.78516 16.0889L0.409668 15.9009L0.580566 12.9785L3.02441 12.8931L3.24658 9.68018L0.700195 9.49219L0.871094 6.62109L3.45166 6.70654L3.65674 3.32275L1.00781 3.03223L1.04199 0.383301L10.8174 1.08398L5.98096 26.6846L6.68164 26.6504C7.13737 26.6276 7.68994 26.6447 8.33936 26.7017C8.98877 26.7472 9.72933 26.8042 10.561 26.8726C11.4611 26.9523 12.2301 27.015 12.8682 27.0605C13.5062 27.0947 14.0246 27.1118 14.4233 27.1118C16.2235 27.1118 17.5736 26.8612 18.4736 26.3599C19.3737 25.8472 19.8237 25.0781 19.8237 24.0527C19.8237 23.7109 19.7782 23.3464 19.687 22.959C19.5959 22.5602 19.4591 22.133 19.2769 21.6772L20.5586 20.9766C21.0257 21.8197 21.3732 22.6001 21.6011 23.3179C21.8403 24.0356 21.96 24.6965 21.96 25.3003ZM16.1494 18.3447C16.1494 18.9258 15.9386 19.4328 15.5171 19.8657C15.0955 20.2873 14.5942 20.498 14.0132 20.498C13.4207 20.498 12.9137 20.2873 12.4922 19.8657C12.0706 19.4328 11.8599 18.9258 11.8599 18.3447C11.8599 17.7865 12.0706 17.3022 12.4922 16.8921C12.9251 16.4705 13.4321 16.2598 14.0132 16.2598C14.5828 16.2598 15.0785 16.4705 15.5 16.8921C15.9329 17.3022 16.1494 17.7865 16.1494 18.3447ZM50.8527 29.1284L47.8278 29.8291L45.7771 23.5913L33.5236 23.4204L30.4646 31.7432L23.885 27.2144L36.7536 0.827637L41.5046 0.41748L50.8527 29.1284ZM43.0769 15.4395L39.864 3.95508L35.4548 17.1826L43.0769 15.4395ZM44.7687 20.5835L43.7775 17.6099L34.5832 19.8828L34.0363 21.2671L44.7687 20.5835ZM32.1223 18.7549L31.507 17.9688C30.6867 19.3359 29.9576 20.7772 29.3195 22.2925C28.6815 23.8078 28.1346 25.4028 27.6789 27.0776L29.2512 27.7441C29.479 26.1833 29.8322 24.6566 30.3107 23.1641C30.8007 21.6602 31.4045 20.1904 32.1223 18.7549ZM78.703 26.8726C78.2017 27.9549 77.6093 28.7638 76.9257 29.2993C76.2421 29.8234 75.473 30.0854 74.6186 30.0854C73.6729 30.0854 72.7159 29.7664 71.7475 29.1284C70.7904 28.4904 69.822 27.5334 68.8422 26.2573L63.0829 18.7207L60.9979 19.3018L60.4169 30.0854L57.2382 30.6152L56.0761 0.246582L57.8192 0.212402L57.9047 2.3999L61.1176 2.65625L61.4423 0.571289L63.1684 0.690918L62.9462 2.94678L65.3217 3.52783L66.3642 1.34033L67.851 2.04102L66.8256 4.0918C67.3839 4.30827 67.8681 4.5874 68.2782 4.9292C68.6998 5.2596 69.0587 5.63558 69.3549 6.05713L71.0297 4.87793L72.1576 6.14258L69.9872 7.57812C70.1695 7.99967 70.2891 8.47819 70.3461 9.01367C70.4031 9.54915 70.3917 10.1359 70.3119 10.7739L72.7729 11.6455L72.0722 13.1494L69.9872 12.3804C69.8733 12.8247 69.6967 13.2747 69.4574 13.7305C69.2182 14.1748 68.9219 14.6134 68.5687 15.0464L70.2265 16.5161L69.184 17.8833L67.3212 16.4819L66.4496 16.9604L71.9013 25.6421C72.095 25.9383 72.3171 26.2231 72.5678 26.4966C72.8298 26.77 73.126 27.0264 73.4564 27.2656C73.8324 27.5391 74.1913 27.7441 74.5331 27.8809C74.8863 28.0176 75.2224 28.0859 75.5414 28.0859C75.9971 28.0859 76.4358 27.9606 76.8573 27.71C77.2789 27.4593 77.689 27.089 78.0878 26.5991L78.703 26.8726ZM66.5692 14.4312L64.5355 5.32227C64.1937 5.17415 63.8064 5.04313 63.3734 4.9292C62.9519 4.80387 62.4791 4.70133 61.955 4.62158L61.1176 17.3535C62.2683 17.0573 63.2994 16.6642 64.2108 16.1743C65.1223 15.6844 65.9084 15.1034 66.5692 14.4312ZM105.87 29.1284L102.845 29.8291L100.794 23.5913L88.5406 23.4204L85.4815 31.7432L78.902 27.2144L91.7706 0.827637L96.5216 0.41748L105.87 29.1284ZM98.0938 15.4395L94.881 3.95508L90.4718 17.1826L98.0938 15.4395ZM99.7857 20.5835L98.7945 17.6099L89.6002 19.8828L89.0533 21.2671L99.7857 20.5835ZM87.1393 18.7549L86.524 17.9688C85.7037 19.3359 84.9745 20.7772 84.3365 22.2925C83.6985 23.8078 83.1516 25.4028 82.6959 27.0776L84.2682 27.7441C84.496 26.1833 84.8492 24.6566 85.3277 23.1641C85.8176 21.6602 86.4215 20.1904 87.1393 18.7549Z" fill="black"/>
</svg>
